# xmcd
#
# Track frame offsets:
#	150
#	15754
#	27479
#	48681
#	62792
#	75159
#	89806
#	107287
#	121863
#	144695
#	157222
#	174968
#	188031
#	201135
#	217494
#
# Disc length: 3104 seconds
#
# Revision: 1
# Processed by: cddbd v1.4PL0 Copyright (c) Steve Scherf et al.
# Submitted via: EasyCDDAExtractor 5.0.6
#
DISCID=ce0c1e0f
DTITLE=Sjoerd van der Leij and Joop van Dijk - Stiel sûnder grinzen
DYEAR=1900
DGENRE=Blues
TTITLE0='t Twadde perron
TTITLE1=Dat is myn lân
TTITLE2=It hat noch nea sa tsjuster west
TTITLE3=Jou mij dyn blues
TTITLE4='t Sil wer maitiid wurde
TTITLE5=Myn bestean
TTITLE6=As 't bûten stoarmet
TTITLE7=Der is mear op 'e wrâld
TTITLE8=Bin de weagen oerstjoer
TTITLE9=Wat makket it út
TTITLE10=Sa moat we 't hâlde
TTITLE11=Lang lyn
TTITLE12=Koekoek
TTITLE13=Myn ierappellân
TTITLE14=As fjouwer wurden
EXTD=
EXTT0=
EXTT1=
EXTT2=
EXTT3=
EXTT4=
EXTT5=
EXTT6=
EXTT7=
EXTT8=
EXTT9=
EXTT10=
EXTT11=
EXTT12=
EXTT13=
EXTT14=
PLAYORDER=
